# xmcd
#
# Track frame offsets: 
#        150
#        58438
#        107108
#        155025
#        220793
#
# Disc length: 3667 seconds
#
# Revision: 2
# Processed by: cddbd v1.5.2PL0 Copyright (c) Steve Scherf et al.
# Submitted via: ExactAudioCopy v0.99pb4
#
DISCID=490e5105
DTITLE=Gonzalo Rubalcaba - Live in Havanna
DYEAR=1986
DGENRE=Jazz
TTITLE0=Green dolhin in the street
TTITLE1=Nueva Cubana
TTITLE2=Concatenacion heroica
TTITLE3=Pluma
TTITLE4=Pisando el Cesped
EXTD=
EXTT0=
EXTT1=
EXTT2=
EXTT3=
EXTT4=
PLAYORDER=
